<svg xmlns="http://www.w3.org/2000/svg" viewBox="0 0 842.1 385.6"><path d="M384.3,447.2c2.5-8.7,4.6-17.5,7.8-25.9,10.2-25.9,25.3-49,42.1-71.1,20-26.1,42.1-49.9,68.7-69.4,10.1-7.5,20.7-14,32.5-18.6l4.9-1.7c-1.7,5.9-2.8,11-4.6,16.1-8.6,24.3-21.2,46.7-35,68.3-21.2,33-45,64-73.3,91.3-14.4,13.7-30.5,24.6-49.5,31.1a11.4,11.4,0,0,0-4,2.9c-5.9,6.3-11.5,12.9-16.7,19.7,3.6-.4,7.3-.6,11-1.2,18.1-3.3,34.8-10.6,51.9-17.4,11.1-4.4,22.3-8.5,33.6-12.5a27,27,0,0,1,8.5-1.3c6.3-.2,8.4,2.8,6.4,8.8-.9,2.8-2.4,5.5-3.9,8.9,4.5-.5,8.5-1.1,12.4-1.4,9.2-.9,18.3-1.7,27.6-2.2,4.2-.2,7.7.9,8.3,6.2.3,3.2,2.8,5.2,5.8,5.7,8.5,1.4,17.1,2.7,25.7,3.9,2.1.2,4.2,0,7,0-9.7,2.5-27.6,1.5-36.1-2-3.3-1.4-6.1-3.3-7.3-7.1-.4-1.2-2.6-2.4-4-2.4-6.3.1-12.9.1-19.1,1.1-8,1.3-15.7,3.5-23.5,5-1.9.4-4-.6-5.9-.9a27.4,27.4,0,0,1,1.5-5.8c.8-1.8,2.4-3.5,3.1-5.4s.9-4.2,1.3-6.3c-2.2-.1-4.3-.7-6.4-.4a43.6,43.6,0,0,0-8.7,2.6c-18.7,6.7-37.2,13.8-56,20.3-12.9,4.5-26,7.4-40.3,7,7.2-9.2,14-18.3,21.1-27.2a10.6,10.6,0,0,1,4.7-3.4c35.5-14.6,61-41,83.2-70.9,15.1-20.4,28.5-42,42.7-63.1a2.7,2.7,0,0,0,.3-1.2l-13.3,6.4-.4-.7c5.2-3.4,10.5-6.9,15.6-10.4a12.1,12.1,0,0,0,3.7-3.4c9-16.7,17.9-33.4,26.9-50a7.3,7.3,0,0,0,.5-2l-6.7,4.1c-22.4,13.9-42,31.2-60.3,50.2-23.4,24-44.1,49.9-61.3,78.6-8.9,15-16.7,30.5-21.1,47.4Z" transform="translate(-60.9 -117)" style="fill:red"/><path d="M393,445.7c31.2-53.6,69.4-101.6,113.2-145.4C465.5,346.5,426.3,393.9,393,445.7Z" transform="translate(-60.9 -117)" style="fill:red"/><path d="M643,409.1c-1,1.5-3,5.1-6,10.7s-7.2,13.5-12.3,23.5l3.3.6a209,209,0,0,0,20.2-9.8,153.4,153.4,0,0,0,18-11.6c11.4-8.5,18.2-16.1,20.3-22.5.7-1.9,1.3-2.7,2-2.7s.6.4.6,1.2a4.9,4.9,0,0,1-.1,1.2q-2.1,11.7-18,24.9c-10.7,8.7-21.7,14.8-35.6,20.6,15.4,3.1,28.1,7.6,38.2,13.4,14.2,8.4,21.3,18.7,21.3,31.2a36.8,36.8,0,0,1-1.5,10.4c-.5,1.6-1.2,2.4-2.2,2.4s-.9-.4-.9-1.2a3,3,0,0,1,.2-1.3,24.2,24.2,0,0,0,1-7c0-10.8-7.2-20.3-21.5-28.5q-18.2-10.5-45.2-15.4l-2.1.7-2,.7c-3,5.7-5.8,10.7-8.5,15s-5.3,8.2-7.7,11.3a32.2,32.2,0,0,0,18.9,5.8c4.8,0,8.1-1.1,9.8-3.5q.3-.6.9,0c.4.4.6.8.3,1.1-1.8,2.5-5.4,3.9-10.6,3.9a35.7,35.7,0,0,1-20-6.1c-7.8,10.1-15,15.2-21.5,15.2a14.8,14.8,0,0,1-6.3-.8,14.7,14.7,0,0,1-9.6-14v-1.4l.2-1.3c.3-1.4.9-2,2-2s.9.3.9,1.1a6.9,6.9,0,0,1-.3,2,8.5,8.5,0,0,0-.4,2.3c0,3,1.4,5.6,4.1,7.9s5.8,2.9,9.6,2.5c5.4-.6,11.3-5.3,17.6-14.1a63.8,63.8,0,0,1-5.2-5.2l-2.4,2.7c-1,1.1-2.2,2.4-3.6,3.7q-4.9,5.4-6,5.4a.9.9,0,0,1-1-.8v-.2c0-.6.1-.2.3-.3a63.1,63.1,0,0,0,6.1-5.5,82.7,82.7,0,0,0,5.5-6.3,64.1,64.1,0,0,1-7.1-10.7l-3.4.2h-3.2a20.9,20.9,0,0,1-9.8-2.4c-2.6-1.4-3.8-3.2-3.8-5.1q0-5.7,14.1-8.4a63.5,63.5,0,0,1-2.6-19.8c.4-10.1,3.1-18.2,7.9-24.4s9.2-8.1,15-8.1a13.6,13.6,0,0,1,11.3,5.7c3,3.8,5.1,9.6,5.1,16.8s-2.2,17.5-6.6,29.1q3.8.1,7.5.6l4.9-11.2c1.8-4.2,4-9,6.2-14.3s3.5-7.4,3.6-7.4a9.9,9.9,0,0,1,8.2-4.4c1.7,0,2.6.7,2.6,1.8A4.1,4.1,0,0,1,643,409.1Zm-61.3,37.1-1.1.2a10,10,0,0,0-4.7,1.8,3.8,3.8,0,0,0-1.8,2.9c0,1.9,1.8,3,5.5,3.2h5.2C583.6,451.6,582.6,448.9,581.7,446.2Zm26.6-4.7c4.1-11.2,6.1-20.7,6.1-28.6s-1.4-11.9-4.2-15.8-5.7-5.3-9.6-5.3-9.1,2.6-12.8,7.8-6.5,13.7-7,23.3a72.6,72.6,0,0,0,2.2,19.2A119,119,0,0,1,608.3,441.5Zm-1.6,4.4c-4.6-.4-8.7-.6-12.5-.6s-6.8.2-10.1.5c.4,1.4.8,2.9,1.3,4.3s1.1,2.7,1.7,4l7.2-.9,10.1-2,1.2-2.6Zm-11.8,21.8,3.8-5.6c1.1-1.9,2.4-4,3.4-6.1l-6.9,1.4-6.3.8a58.5,58.5,0,0,0,6,9.5Zm6.2,6.6a80.5,80.5,0,0,0,5.8-9.3c2-3.5,4-7.4,6.2-11.8l-4.3,1.1-4.1,1.1a65.2,65.2,0,0,1-4.3,7.2c-1.5,2.3-3,4.4-4.6,6.4a44.2,44.2,0,0,0,5.3,5.3Zm5.9-23.5c4.6-1,7-2.1,7-3.2s-1.7-1.2-4.9-1.4l-1.1,2.2Z" transform="translate(-60.9 -117)" style="fill:red"/><path d="M737.1,463.5q-6.6,13.2-6.6,20.7c0,3.8,1.5,5.8,4.6,5.8,4.8,0,11-4,18.3-11.9.8-.8,1.3-1.2,1.8-1.2s.5.3.5.9a2.1,2.1,0,0,1-.8,1.6c-8.9,9.5-16.5,14-22.8,13.4a6.6,6.6,0,0,1-4.6-2.6,10.2,10.2,0,0,1-2.4-7.1,16.1,16.1,0,0,1,.6-4.4c-5.6,6.7-10,10.7-13.1,12.3a13.1,13.1,0,0,1-4.8,1.2c-3.6,0-5.3-2-5.3-6s2.2-10.3,6.5-18.1q1.1-2.1,4.8-2.1c2.4,0,2,.6,1.6,1.7a30.1,30.1,0,0,1-1.9,3.5c-.7,1.2-1.3,2.4-1.9,3.6-2.2,4.4-3.4,7.9-3.4,10.1s.7,3.8,2.1,4.4c3.3,0,7.1-3.1,11.6-9.2a71,71,0,0,0,9.2-16.6c.9-1.1,2.4-1.7,4.6-1.7s1.6.3,1.6,1A1.9,1.9,0,0,1,737.1,463.5Z" transform="translate(-60.9 -117)" style="fill:red"/><path d="M768.7,461.4a19,19,0,0,0,.3,2.5,13.1,13.1,0,0,0,.6,2.7c1.3-1.8,2.6-3.5,4-5.2a48.1,48.1,0,0,1,4.2-4.8c3.7-3.9,7.2-5.8,10.5-5.8a5.3,5.3,0,0,1,4.1,1.6,5.2,5.2,0,0,1,1.7,3.9,7.3,7.3,0,0,1-.7,2.9c-.5,1-1.1,1.5-1.7,1.5s-1.3-.6-1.5-1.9a4.1,4.1,0,0,0-3.9-3.4c-2.1,0-6.7,2.3-10.7,6.9l-2.8,3.4a15.4,15.4,0,0,0-2.5,3.2,35.7,35.7,0,0,0,7.1,13.3c3.7,4.1,7.6,6.1,11.9,6.1a17.5,17.5,0,0,0,6.7-1.7,39.3,39.3,0,0,0,10.4-8.5,3.5,3.5,0,0,1,1.9-1.2,1.1,1.1,0,0,1,.6.9,3.5,3.5,0,0,1-.6,1.4,51,51,0,0,1-11.7,8.9c-5.2,3-9.5,4.4-13,4.4s-6.9-1.8-10.2-5.4a38.1,38.1,0,0,1-7.5-11.5,60.6,60.6,0,0,0-3.9,7.6c-1.3,3-2.7,6.6-4.3,10.6a5.9,5.9,0,0,1-2.9,1c-2.3,0-3.4-1.6-3.4-5a4.3,4.3,0,0,1,.4-2.5c1.2-3.7,2.8-8.1,4.7-13.2s4.2-10.7,6.9-17.2c7-16.6,12.9-28.3,17.5-35s8-8.6,12.5-8.6,5,2,5,5.9a22.9,22.9,0,0,1-1.1,5.8C794,435.4,784.3,447.5,768.7,461.4ZM765,473.6a24.4,24.4,0,0,1-1.4-4.6c-3.6,7.8-5.7,14.1-6.3,19.1a111.6,111.6,0,0,1,7.7-14.5Zm28.5-49a15.9,15.9,0,0,0,1.4-5.6c0-2-.7-2.9-2-2.9s-4.5,2.3-7.1,6.8c-3.5,6-6.6,12-9.6,18.1s-5.7,12.3-8.3,18.7c2.4-2.4,4.9-5,7.3-7.7s4.8-5.7,7.1-8.8,5-7,6.9-10a76.6,76.6,0,0,0,4.3-8.6Z" transform="translate(-60.9 -117)" style="fill:red"/><path d="M840.1,463.5q-6.6,13.2-6.6,20.7c0,3.8,1.5,5.8,4.6,5.8,4.9,0,11-4,18.3-11.9.8-.8,1.4-1.2,1.7-1.2s.6.3.6.9a2.1,2.1,0,0,1-.8,1.6c-8.9,9.5-16.5,14-22.9,13.4a6.7,6.7,0,0,1-4.5-2.6,10.2,10.2,0,0,1-2.4-7.1,21.2,21.2,0,0,1,.6-4.4c-5.6,6.7-10,10.7-13.1,12.3a13.1,13.1,0,0,1-4.8,1.2c-3.6,0-5.3-2-5.3-6s2.2-10.3,6.5-18.1q1.2-2.1,4.8-2.1c2.5,0,2,.6,1.6,1.7a39,39,0,0,1-1.9,3.5c-.7,1.2-1.2,2.4-1.9,3.6-2.2,4.4-3.3,7.9-3.3,10.1s.6,3.8,2,4.4c3.3,0,7.1-3.1,11.6-9.2a75.1,75.1,0,0,0,9.3-16.6c.8-1.1,2.3-1.7,4.5-1.7s1.7.3,1.7,1Z" transform="translate(-60.9 -117)" style="fill:red"/><path d="M856.4,491.9a1.7,1.7,0,0,1-1.6,1.2,3.3,3.3,0,0,1-2.1-1.1c-.7-.8-1-1.4-.8-2s1.3-2.8,2.2-4.9l3.3-7.7c3.3-7.5,4.9-12,4.9-13.7s1.5-1.2,3.7-2.3,3.7-.9,3.7.9c-1.6,5-5,12.8-10.1,23.5l9.1-9.9,10.4-11.3c1.8-1.9,3.1-2.9,4.2-2.9s.7.4.7,1.2a5.8,5.8,0,0,1-.4,1.8c-2.5,8.9-3.8,15-3.8,18.5s1.4,6.2,4.2,6.2,5.9-1.3,9.4-4.1l2.8-2.7,4.7-4.6c.6-.6,1-1,1.4-1s.5.3.6.8a1.1,1.1,0,0,1-.3,1.3c-7.9,8.6-14.8,12.9-20.8,12.9s-8-4.2-8-12.6a40.9,40.9,0,0,1,.3-6.1c-1,.8-2.2,2.1-3.6,3.4l-5.2,4.9-2.8,2.8a34.7,34.7,0,0,0-2.5,2.9l-1.8,2.3Z" transform="translate(-60.9 -117)" style="fill:red"/><path d="M335,117l-51.4,89-51.5-89H60.9L283.6,502.6,506.2,117Z" transform="translate(-60.9 -117)" style="fill:#41b883"/><path d="M335,117l-51.4,89-51.5-89H150L283.6,348.4,417.2,117Z" transform="translate(-60.9 -117)" style="fill:#34495e"/></svg>